<svg width="80" height="80" viewBox="0 0 80 80" fill="none" xmlns="http://www.w3.org/2000/svg">
<circle cx="40" cy="40" r="40" fill="#0657F9"/>
<path fill-rule="evenodd" clip-rule="evenodd" d="M40 22.75C41.0585 22.75 41.9167 23.6081 41.9167 24.6667V55.3333C41.9167 56.3919 41.0585 57.25 40 57.25C38.9415 57.25 38.0833 56.3919 38.0833 55.3333V24.6667C38.0833 23.6081 38.9415 22.75 40 22.75Z" fill="white"/>
<path fill-rule="evenodd" clip-rule="evenodd" d="M38.0833 24.1875C38.0833 20.1026 41.5767 17 45.6235 17C48.5554 17 51.1426 18.6145 52.3792 21.0361C55.9195 21.5516 58.7833 24.4419 58.7833 28.1397C58.7833 28.4689 58.7581 28.7885 58.7121 29.0977C60.4327 30.3873 61.5951 32.3957 61.5951 34.7292C61.5951 35.8014 61.3421 36.8012 60.9099 37.6919C62.183 38.9569 63 40.6821 63 42.6354C63 43.8441 62.6776 44.9595 62.142 45.9299C62.6774 46.8995 63 48.014 63 49.223C63 52.3377 60.9541 54.8793 58.2099 55.9064C57.0903 58.5145 54.4448 60.2933 51.4277 60.3625C50.0433 61.9792 47.9532 63 45.6235 63C41.5767 63 38.0833 59.8974 38.0833 55.8125C38.0833 54.754 38.9415 53.8958 40 53.8958C41.0585 53.8958 41.9167 54.754 41.9167 55.8125C41.9167 57.5505 43.4565 59.1667 45.6235 59.1667C47.0518 59.1667 48.2426 58.4245 48.8577 57.3943C49.2476 56.7415 49.9865 56.3808 50.7411 56.4751C50.8392 56.4874 50.9143 56.4972 50.9738 56.505C51.124 56.5247 51.1744 56.5312 51.2451 56.5312C53.0864 56.5312 54.5035 55.333 54.8531 53.8983C55.0272 53.1836 55.595 52.6316 56.3142 52.4778C58.0368 52.1092 59.1667 50.7207 59.1667 49.223C59.1667 48.4853 58.8838 47.7829 58.3653 47.18C57.7471 46.4614 57.7471 45.3989 58.3653 44.6803C58.8832 44.0781 59.1667 43.3739 59.1667 42.6354C59.1667 41.4873 58.5055 40.4194 57.391 39.7971C56.8812 39.5125 56.5289 39.0111 56.4341 38.4351C56.3392 37.8591 56.512 37.2712 56.9035 36.8381C57.4579 36.2251 57.7617 35.4958 57.7617 34.7292C57.7617 33.4847 56.981 32.3244 55.6986 31.7421C54.7654 31.3183 54.3306 30.2354 54.7118 29.2841C54.8691 28.8915 54.95 28.5128 54.95 28.1397C54.95 26.4238 53.4466 24.8269 51.324 24.7881C51.3175 24.7889 51.3105 24.7896 51.3033 24.7904C51.2555 24.7955 51.1873 24.8016 51.1062 24.8039C50.2217 24.8292 49.4349 24.2456 49.2023 23.3919C48.8191 21.9859 47.4239 20.8333 45.6235 20.8333C43.4565 20.8333 41.9167 22.4495 41.9167 24.1875C41.9167 25.246 41.0585 26.1042 40 26.1042C38.9415 26.1042 38.0833 25.246 38.0833 24.1875Z" fill="white"/>
<path fill-rule="evenodd" clip-rule="evenodd" d="M27.6208 21.0361C28.8574 18.6145 31.4446 17 34.3765 17C38.4233 17 41.9167 20.1026 41.9167 24.1875C41.9167 25.246 41.0585 26.1042 40 26.1042C38.9415 26.1042 38.0833 25.246 38.0833 24.1875C38.0833 22.4495 36.5435 20.8333 34.3765 20.8333C32.5761 20.8333 31.1809 21.9859 30.7977 23.3919C30.5651 24.2456 29.7783 24.8292 28.8938 24.8039C28.8127 24.8016 28.7445 24.7955 28.6967 24.7904C28.6895 24.7896 28.6825 24.7889 28.676 24.7881C26.5539 24.8269 25.05 26.4234 25.05 28.1416C25.05 28.5124 25.1307 28.8911 25.2882 29.2841C25.6694 30.2354 25.2346 31.3183 24.3015 31.7421C23.019 32.3244 22.2382 33.4847 22.2382 34.7292C22.2382 35.4961 22.5423 36.2246 23.0951 36.8347C23.4871 37.2674 23.6606 37.8552 23.5662 38.4314C23.4719 39.0075 23.1201 39.5093 22.6105 39.7944C21.4943 40.4188 20.8333 41.4876 20.8333 42.6354C20.8333 43.3739 21.1168 44.0781 21.6347 44.6803C22.2534 45.3995 22.2528 46.463 21.6334 47.1816C21.1172 47.7805 20.8333 48.4839 20.8333 49.2249C20.8333 50.7202 21.9627 52.1091 23.6858 52.4778C24.405 52.6316 24.9728 53.1836 25.1469 53.8983C25.4965 55.333 26.9136 56.5312 28.7549 56.5312C28.8256 56.5312 28.876 56.5247 29.0262 56.505C29.0857 56.4972 29.1608 56.4874 29.2589 56.4751C30.0135 56.3808 30.7524 56.7415 31.1423 57.3943C31.7574 58.4245 32.9482 59.1667 34.3765 59.1667C36.5435 59.1667 38.0833 57.5505 38.0833 55.8125C38.0833 54.754 38.9415 53.8958 40 53.8958C41.0585 53.8958 41.9167 54.754 41.9167 55.8125C41.9167 59.8974 38.4233 63 34.3765 63C32.0468 63 29.9567 61.9792 28.5723 60.3625C25.5552 60.2933 22.9097 58.5145 21.7901 55.9064C19.0462 54.8794 17 52.3382 17 49.2249C17 48.0157 17.322 46.8999 17.8577 45.9295C17.3223 44.9592 17 43.8439 17 42.6354C17 40.6817 17.8172 38.9568 19.09 37.6913C18.6577 36.8007 18.4049 35.801 18.4049 34.7292C18.4049 32.3957 19.5672 30.3873 21.2878 29.0977C21.2419 28.789 21.2167 28.47 21.2167 28.1416C21.2167 24.4424 24.0802 21.5517 27.6208 21.0361Z" fill="white"/>
</svg>
